<svg id="Capa_1" data-name="Capa 1" xmlns="http://www.w3.org/2000/svg" viewBox="0 0 1055.8 319.68"><defs><style>.cls-1{fill:#fff;}.cls-2{fill:#2ad2c9;}</style></defs><title>WEFU-PARTNERS</title><path class="cls-1" d="M449.08,57.57h0a12,12,0,0,1,11.59,8.84l32.17,117.43L526.56,69.77a17,17,0,0,1,16.33-12.2h0a17,17,0,0,1,16.36,12.3l33,114.25L623.94,66.17a11.6,11.6,0,0,1,11.22-8.6h0a11.62,11.62,0,0,1,11.09,15.08L607.84,195.73A17.47,17.47,0,0,1,591.16,208h0a17.47,17.47,0,0,1-16.71-12.4L542,88.59l-32.47,107A17.48,17.48,0,0,1,492.77,208h0a17.48,17.48,0,0,1-16.68-12.25L437.62,73.18A12,12,0,0,1,449.08,57.57Z"/><path class="cls-1" d="M727,210.47c-42.83,0-74.4-30.2-74.4-78C652.59,85,683.07,55.1,727,55.1c43.64,0,72.19,30.74,72.19,71.92v.16a15,15,0,0,1-15,14.94h-106c1.93,30.47,23.34,47.21,48.87,47.21,19.39,0,32.67-8.55,39.48-21.28a12.24,12.24,0,0,1,10.79-6.44h0a12.24,12.24,0,0,1,10.3,18.91C775.81,198.29,755.15,210.47,727,210.47ZM678.4,121.8h95c.27-29.37-21.69-45.57-47.49-45.57C701.46,76.23,681.14,92.43,678.4,121.8Z"/><path class="cls-1" d="M1039.09,208h0a12.49,12.49,0,0,1-12.49-12.49v-9.75c-9.61,15.65-28,24.43-48,24.43-34.59,0-61.76-21.41-61.76-64.5V69.92a12.35,12.35,0,0,1,12.35-12.35h0A12.35,12.35,0,0,1,941.5,69.92v72.47c0,30.47,16.75,46.12,42,46.12,25.8,0,43.1-15.92,43.1-48.32V70.06a12.49,12.49,0,0,1,12.49-12.49h0a12.49,12.49,0,0,1,12.49,12.49V195.51A12.49,12.49,0,0,1,1039.09,208Z"/><path class="cls-1" d="M895.91,77h-31.4V66.28c0-19.49,7.18-27.72,29.68-27.72h1.93a10.42,10.42,0,1,0,.1-20.84h-1.89c-38.43,0-54.73,15.1-54.73,48.59V77H819.79a10.33,10.33,0,0,0-10.38,10.2h0a9.78,9.78,0,0,0,10.08,9.92H839.6v98.41A12.46,12.46,0,0,0,852.06,208h0a12.46,12.46,0,0,0,12.45-12.45V97.14h31.61c5.89,0,10.56-4.47,10.33-10.32A10.43,10.43,0,0,0,895.91,77Z"/><path class="cls-2" d="M406.12,230.29,399.77,225a150.87,150.87,0,0,0-59.52-29.73l33.18-107a6.91,6.91,0,0,0-6.61-9c-4.09,0-8.26,0-9.58.06l7.42-45a7,7,0,0,0-6.22-8.06c-4.29-.39-9.19-.8-11-.8A148.52,148.52,0,0,0,285.9,39.36a75,75,0,0,0-33.39-7.92,72.58,72.58,0,0,0-30.45,6.72,184.23,184.23,0,0,0-9.7-19.37,6.89,6.89,0,0,0-11.92,0A181.8,181.8,0,0,0,190.8,38a73.52,73.52,0,0,0-21.48-6,76.13,76.13,0,0,0-9.14-.56A74.54,74.54,0,0,0,127,39.35,148.57,148.57,0,0,0,65.43,25.52c-1.8,0-6.45.32-10.57.63a6.87,6.87,0,0,0-6.25,8L56,79.36c-2.76-.07-5.54-.13-8.38-.13h-1a6.88,6.88,0,0,0-6.53,8.92l33.16,107A151.21,151.21,0,0,0,13.07,225l-6.33,5.25a7,7,0,0,0,0,10.72l6.33,5.25c27.12,22.46,63,34.83,101.07,34.83,34,0,66.31-9.92,92.16-28.08l.1.16h0l.12-.18c25.84,18.17,58.14,28.1,92.19,28.1,38.06,0,74-12.37,101.06-34.83l6.35-5.26A7,7,0,0,0,406.12,230.29ZM357.49,93.14l-30.78,99.14a171.67,171.67,0,0,0-28-2.48h0a169.18,169.18,0,0,0-25.19,1.9c.27-.25.55-.5.81-.76a26.18,26.18,0,0,0,5.41-7.49,22,22,0,0,0,1.51-4.65,20.75,20.75,0,0,0,5.28-1.83,27.61,27.61,0,0,0,7.37-5.73c3.67-3.91,7.82-7.74,11.86-12A80.09,80.09,0,0,0,321.84,135a70.91,70.91,0,0,0,5.5-27.67h0v-.06a82.43,82.43,0,0,0-.8-11.3A237.93,237.93,0,0,1,357.49,93.14ZM206.4,36.87c1.29,2.65,2.5,5.38,3.67,8.15-1.26.82-2.5,1.65-3.73,2.46q-1.74-1.36-3.54-2.62C204,42.15,205.13,39.47,206.4,36.87Zm3.86,26.89c12.21-11.82,26-17.85,41.07-17.85a64.28,64.28,0,0,1,19,3,69.58,69.58,0,0,1,14.4,6.47c2.34-1.28,5.74-3,9.89-4.89a134.34,134.34,0,0,1,52.76-11.22c.68,0,1.36,0,2,0l-6.68,40.85q-10,.82-19.24,2.37h0a81.79,81.79,0,0,0-14.4,3.26,87,87,0,0,1,2.53,9.73,64.32,64.32,0,0,1,1.18,12.08c0,15.47-2.71,25.5-14.12,37.6,0,0-3.65-3.54-5.61-5.52Q264.51,110.75,235.72,82c-3.08-3.11-6.6-4.79-10.19-4.79s-7.08,1.67-10.15,4.75c-9.5,9.53-21.72,21.84-31.25,31.33a14.67,14.67,0,0,1-10.39,4.41,14,14,0,0,1-8.86-3.17,5.66,5.66,0,0,1-1.34-1.42,2.06,2.06,0,0,1-.35-1.07,2.25,2.25,0,0,1,.29-1,6.11,6.11,0,0,1,1.11-1.43C179.8,94.25,194.81,78.76,210.26,63.76ZM65.43,39.29A132.73,132.73,0,0,1,113,48.39a.94.94,0,0,1-.12.09A150.44,150.44,0,0,1,128,55.35a58.29,58.29,0,0,1,23-8.57,66.06,66.06,0,0,1,9.6-.72c13.68,0,22.21,1.55,33.5,10.59.25.19.5.42.74.63-.23.26-27.86,29.22-41.37,42.8-3.17,3.18-7.82,8.89-7.82,12.5a12,12,0,0,0,1.64,6,17.54,17.54,0,0,0,4.72,5.17c4.45,3.35,19.39,7.39,24.51,7.39a25,25,0,0,0,17.66-7.54c9.51-9.43,18.91-18.95,28.34-28.42a11.63,11.63,0,0,1,1.91-1.62,2,2,0,0,1,1.1-.4,2.07,2.07,0,0,1,1.08.38c.48.31,1.85,1.58,1.85,1.58l55.26,55.5s2.5,2.24,2.5,5.14a5.11,5.11,0,0,1-1,3.05,21.45,21.45,0,0,1-4,4.4,6.11,6.11,0,0,1-3.8,1.49,6,6,0,0,1-1.9-.33,10.43,10.43,0,0,1-3.89-2.54q-20-19.89-39.79-39.91-.94-1-1.92-1.92a9,9,0,0,0-2.25-1.67,5.36,5.36,0,0,0-2.45-.62,5.22,5.22,0,0,0-5,5,5.36,5.36,0,0,0,.61,2.42,8.74,8.74,0,0,0,1.65,2.2q21,21.1,42,42.18a10.81,10.81,0,0,1,1.93,2.47,5.1,5.1,0,0,1,.69,2.51,5,5,0,0,1-.24,1.51,11.36,11.36,0,0,1-2.82,4.81,13.19,13.19,0,0,1-5.11,3.29,4.78,4.78,0,0,1-1.45.22,5.32,5.32,0,0,1-2.47-.64,10.39,10.39,0,0,1-2.4-1.85c-13.82-13.93-27.76-28.15-41.6-42.05-.87-.87-2.87-2.59-5.22-2.48a5.07,5.07,0,0,0-3.4,1.54A4.76,4.76,0,0,0,201,142.2a5.58,5.58,0,0,0,.79,2.72,10.5,10.5,0,0,0,2,2.26c13.68,13.74,27.44,27.81,41.12,41.55a12.84,12.84,0,0,1,2.33,3,5.46,5.46,0,0,1,.69,2.58,5.54,5.54,0,0,1-.71,2.63,10,10,0,0,1-2,2.6,16.1,16.1,0,0,1-2.85,2.47,5.35,5.35,0,0,1-2.92.92,6.93,6.93,0,0,1-3.29-1,9.38,9.38,0,0,1-2.26-1.81,22.13,22.13,0,0,0-6-4.68,16.8,16.8,0,0,0-7.22-1.83c-.19-4.75-2.61-9.48-6.18-13.12a20.68,20.68,0,0,0-12.79-6.35,21.58,21.58,0,0,0-19.17-18.89,16,16,0,0,0-2.35-8.13,29,29,0,0,0-5.55-6.44,17.29,17.29,0,0,0-11.64-4.64,16.38,16.38,0,0,0-11.44,4.69c-5.77,5.53-11.38,11.22-16.88,17a25.2,25.2,0,0,0-3.3,4.85c-6.57-6.69-13.55-12.92-19.07-20.12a58,58,0,0,1-12.12-35.6,61.43,61.43,0,0,1,4-21.65c-2.76-.65-6.73-1.48-12.13-2.35-7-1.23-14.25-2.17-21.86-2.78L63.39,39.33C64.07,39.32,64.75,39.29,65.43,39.29ZM153.37,174.6a7.3,7.3,0,0,1-1.84,1.19h0a5,5,0,0,1-3.84.23,8.89,8.89,0,0,1-2.68-1.5,12.39,12.39,0,0,1-3.1-4.06,4.6,4.6,0,0,1-.57-2.13,4.84,4.84,0,0,1,.64-2.29,9.85,9.85,0,0,1,1.83-2.31c4.35-4.27,8.59-8.63,12.88-12.92a9.36,9.36,0,0,1,2.41-1.83,4.75,4.75,0,0,1,2.19-.56,4.91,4.91,0,0,1,2.22.57,10,10,0,0,1,2.48,1.87c.47.48.94.93,1.37,1.39a6.21,6.21,0,0,1,1.9,4.25,5.87,5.87,0,0,1-1.88,4.12C162.74,165.35,158.13,170.06,153.37,174.6Zm19.55,19.64a7.32,7.32,0,0,1-1.84,1.2h0a5,5,0,0,1-3.85.23,8.8,8.8,0,0,1-2.68-1.5,12.52,12.52,0,0,1-3.1-4,4.59,4.59,0,0,1-.56-2.14,4.79,4.79,0,0,1,.64-2.29,10.28,10.28,0,0,1,1.82-2.31c4.36-4.27,8.6-8.62,12.88-12.92a9.87,9.87,0,0,1,2.42-1.83,4.62,4.62,0,0,1,4.41,0,10,10,0,0,1,2.48,1.87c.47.47.93.92,1.36,1.38a6.16,6.16,0,0,1,1.9,4.25,5.88,5.88,0,0,1-1.87,4.13C182.29,185,177.68,189.71,172.92,194.24Zm19,18.5a7.48,7.48,0,0,1-1.84,1.19h0a5,5,0,0,1-3.84.23,9.11,9.11,0,0,1-2.68-1.5,12.39,12.39,0,0,1-3.1-4.06,4.6,4.6,0,0,1-.57-2.13,4.84,4.84,0,0,1,.64-2.29,9.89,9.89,0,0,1,1.83-2.32c4.35-4.26,8.59-8.62,12.88-12.92a9.53,9.53,0,0,1,2.41-1.82,4.75,4.75,0,0,1,2.19-.56,4.91,4.91,0,0,1,2.22.57,10,10,0,0,1,2.48,1.87c.47.47.94.93,1.37,1.39a6.21,6.21,0,0,1,1.9,4.25,5.87,5.87,0,0,1-1.88,4.12C201.32,203.49,196.71,208.2,192,212.74Zm18.72,18.72a7.3,7.3,0,0,1-1.84,1.19h0a5,5,0,0,1-3.84.23,9.24,9.24,0,0,1-2.68-1.5,12.53,12.53,0,0,1-3.1-4.06,4.38,4.38,0,0,1,.08-4.42,10.1,10.1,0,0,1,1.82-2.32c4.35-4.26,8.6-8.62,12.88-12.92a9.39,9.39,0,0,1,2.42-1.82,4.68,4.68,0,0,1,2.18-.56,4.88,4.88,0,0,1,2.22.57,9.65,9.65,0,0,1,2.48,1.87c.47.47.94.93,1.37,1.39a6.21,6.21,0,0,1,1.9,4.25,5.86,5.86,0,0,1-1.87,4.12C220,222.21,215.43,226.92,210.67,231.46ZM56,93.13a237,237,0,0,1,30.5,2.81,90.12,90.12,0,0,0-.73,13.64c0,2.3.1,4.16.12,4.23l0,.14a77.34,77.34,0,0,0,5.34,21.81A65.4,65.4,0,0,0,103.43,155c10.38,11.39,21.41,22,32.07,32.65a22.72,22.72,0,0,0,10.21,5.56,169.73,169.73,0,0,0-31.58-3,172.93,172.93,0,0,0-27.35,2.18Zm120.54,161-.16.07c-1.22.57-2.46,1.1-3.7,1.6l-1.58.65c-1.35.54-2.7,1.06-4.07,1.56l-1.23.44q-2,.72-4,1.38c-.57.18-1.14.34-1.7.53-1.15.38-2.3.74-3.47,1.05l-.58.16c-2.76.77-5.54,1.45-8.34,2.07l-1.86.42c-1,.21-2,.39-3,.58l-2.75.5-2.81.43c-1,.15-2,.3-3.07.43l-2.63.32-3.36.33c-.8.07-1.61.15-2.42.21-1.27.09-2.55.16-3.83.22-.66,0-1.32.08-2,.1-2,.08-3.89.12-5.84.12-33.4,0-66.79-10.55-92.28-31.67h0c1.42-1.18,2.88-2.31,4.35-3.43l.95-.71q2.16-1.6,4.38-3.12l.78-.52q2-1.35,4.1-2.62l.83-.52c1.52-.92,3.06-1.8,4.61-2.66.37-.21.75-.41,1.13-.61,1.52-.82,3-1.62,4.6-2.38l.15-.08q2.07-1,4.2-2L54,216.1c1.6-.68,3.21-1.35,4.84-2l1.17-.44c1.39-.53,2.8-1,4.22-1.51l1.16-.4c1.64-.55,3.3-1.06,5-1.55l1.41-.41q2.34-.66,4.71-1.26a156.45,156.45,0,0,1,88,3.81,19.49,19.49,0,0,0,1.56,4.36h0a28,28,0,0,0,5.18,7,26.47,26.47,0,0,0,7.32,5.38,21,21,0,0,0,4.76,1.58,20.48,20.48,0,0,0,2.29,6.09,32.22,32.22,0,0,0,6,7.29,18.7,18.7,0,0,0,1.46,1.21A135.24,135.24,0,0,1,176.56,254.14ZM391,235.64c-25.48,21.12-58.87,31.67-92.27,31.67-28.71,0-57.37-7.87-81-23.48,5-3.62,11-10.64,14.69-14.68,3-3.26,6.64-6,8.35-10.09a18.11,18.11,0,0,0,1.16-3.56,11.3,11.3,0,0,0,6.77-.54,24.87,24.87,0,0,0,6.86-4.85l0-.05A155.1,155.1,0,0,1,298.71,204c33.39,0,66.8,10.56,92.27,31.67Z"/><polygon class="cls-2" points="255.49 210.11 255.49 210.11 255.49 210.11 255.49 210.11"/><polygon class="cls-2" points="286.52 176.97 286.52 176.97 286.52 176.97 286.52 176.97"/><polygon class="cls-2" points="185.62 236.77 185.61 236.77 185.61 236.76 185.62 236.77"/><polygon class="cls-2" points="279.73 183.45 279.73 183.45 279.73 183.45 279.73 183.45"/><polygon class="cls-2" points="166.06 216.72 166.06 216.72 166.06 216.71 166.06 216.72"/><path class="cls-1" d="M738.46,283.65h-9.3v20.19h-6.31V255.48h15.61c11.38,0,16.72,6.25,16.72,14.15C755.18,277,750.46,283.65,738.46,283.65Zm0-5.2c7.22,0,10.27-3.4,10.27-8.82,0-5.62-3.05-8.95-10.27-8.95h-9.3v17.77Z"/><path class="cls-1" d="M791.6,293.09H770.51l-3.88,10.75H760l17.48-48.08h7.28l17.42,48.08h-6.66Zm-10.54-29.56L772.32,288H789.8Z"/><path class="cls-1" d="M825.39,255.48c11.38,0,16.79,6.31,16.79,14.22,0,6.18-3.4,12.08-11.52,13.88l12.14,20.26h-7.56l-11.52-19.77h-7.63v19.77h-6.31V255.48Zm0,5.2h-9.3V279h9.3c7.15,0,10.27-3.88,10.27-9.3S832.6,260.68,825.39,260.68Z"/><path class="cls-1" d="M849,255.48h32.74v5.14H868.54v43.22h-6.31V260.62H849Z"/><path class="cls-1" d="M927.51,255.41v48.43H921.2l-25.4-38.51v38.51h-6.31V255.41h6.31l25.4,38.44V255.41Z"/><path class="cls-1" d="M964.28,260.62h-19.7v16.16H962.2V282H944.58v16.66h19.7v5.2h-26V255.41h26Z"/><path class="cls-1" d="M989.46,255.48c11.38,0,16.79,6.31,16.79,14.22,0,6.18-3.4,12.08-11.51,13.88l12.14,20.26h-7.57L987.8,284.07h-7.63v19.77h-6.32V255.48Zm0,5.2h-9.29V279h9.29c7.15,0,10.27-3.88,10.27-9.3S996.68,260.68,989.46,260.68Z"/><path class="cls-1" d="M1031.37,304.32c-9.72,0-16.59-5.41-16.72-13.39h6.73c.41,4,3.26,8.05,10,8.05,6.1,0,9.71-3.47,9.71-8.05,0-13-26.16-4.71-26.16-22.68,0-8,6.46-13.39,16-13.39,9.23,0,15.26,5.06,16,12.42H1040c-.42-3.27-3.47-6.94-9.37-7-5.2-.14-9.29,2.57-9.29,7.77,0,12.49,26.08,4.72,26.08,22.62C1047.46,297.53,1041.84,304.32,1031.37,304.32Z"/></svg>