<svg id="Capa_1" data-name="Capa 1" xmlns="http://www.w3.org/2000/svg" viewBox="0 0 1055.8 319.68"><defs><style>.cls-1{fill:#2ad2c9}.cls-2{fill:#005670}</style></defs><path class="cls-1" d="M449.08 57.57a12 12 0 0111.59 8.84l32.17 117.43 33.72-114.07a17 17 0 0116.33-12.2 17 17 0 0116.36 12.3l33 114.25 31.69-117.95a11.6 11.6 0 0111.22-8.6 11.62 11.62 0 0111.09 15.08l-38.41 123.08A17.47 17.47 0 01591.16 208a17.47 17.47 0 01-16.71-12.4L542 88.59l-32.47 107A17.48 17.48 0 01492.77 208a17.48 17.48 0 01-16.68-12.25L437.62 73.18a12 12 0 0111.46-15.61zM727 210.47c-42.83 0-74.4-30.2-74.4-78C652.59 85 683.07 55.1 727 55.1c43.64 0 72.19 30.74 72.19 71.92v.16a15 15 0 01-15 14.94h-106c1.93 30.47 23.34 47.21 48.87 47.21 19.39 0 32.67-8.55 39.48-21.28a12.24 12.24 0 0110.79-6.44 12.24 12.24 0 0110.3 18.91c-11.82 17.77-32.48 29.95-60.63 29.95zm-48.6-88.67h95c.27-29.37-21.69-45.57-47.49-45.57-24.45 0-44.77 16.2-47.51 45.57zM1039.09 208a12.49 12.49 0 01-12.49-12.49v-9.75c-9.61 15.65-28 24.43-48 24.43-34.59 0-61.76-21.41-61.76-64.5V69.92a12.35 12.35 0 0112.35-12.35 12.35 12.35 0 0112.31 12.35v72.47c0 30.47 16.75 46.12 42 46.12 25.8 0 43.1-15.92 43.1-48.32V70.06a12.49 12.49 0 0112.49-12.49 12.49 12.49 0 0112.49 12.49v125.45a12.49 12.49 0 01-12.49 12.49zM895.91 77h-31.4V66.28c0-19.49 7.18-27.72 29.68-27.72h1.93a10.42 10.42 0 10.1-20.84h-1.89c-38.43 0-54.73 15.1-54.73 48.59V77h-19.81a10.33 10.33 0 00-10.38 10.2 9.78 9.78 0 0010.08 9.92h20.11v98.41A12.46 12.46 0 00852.06 208a12.46 12.46 0 0012.45-12.45V97.14h31.61c5.89 0 10.56-4.47 10.33-10.32A10.43 10.43 0 00895.91 77z"/><path class="cls-2" d="M406.12 230.29l-6.35-5.29a150.87 150.87 0 00-59.52-29.73l33.18-107a6.91 6.91 0 00-6.61-9c-4.09 0-8.26 0-9.58.06l7.42-45a7 7 0 00-6.22-8.06c-4.29-.39-9.19-.8-11-.8a148.52 148.52 0 00-61.54 13.89 75 75 0 00-33.39-7.92 72.58 72.58 0 00-30.45 6.72 184.23 184.23 0 00-9.7-19.37 6.89 6.89 0 00-11.92 0A181.8 181.8 0 00190.8 38a73.52 73.52 0 00-21.48-6 76.13 76.13 0 00-9.14-.56A74.54 74.54 0 00127 39.35a148.57 148.57 0 00-61.57-13.83c-1.8 0-6.45.32-10.57.63a6.87 6.87 0 00-6.25 8L56 79.36c-2.76-.07-5.54-.13-8.38-.13h-1a6.88 6.88 0 00-6.53 8.92l33.16 107A151.21 151.21 0 0013.07 225l-6.33 5.25a7 7 0 000 10.72l6.33 5.25c27.12 22.46 63 34.83 101.07 34.83 34 0 66.31-9.92 92.16-28.08l.1.16.12-.18c25.84 18.17 58.14 28.1 92.19 28.1 38.06 0 74-12.37 101.06-34.83l6.35-5.26a7 7 0 000-10.67zM357.49 93.14l-30.78 99.14a171.67 171.67 0 00-28-2.48 169.18 169.18 0 00-25.19 1.9c.27-.25.55-.5.81-.76a26.18 26.18 0 005.41-7.49 22 22 0 001.51-4.65 20.75 20.75 0 005.28-1.83 27.61 27.61 0 007.37-5.73c3.67-3.91 7.82-7.74 11.86-12A80.09 80.09 0 00321.84 135a70.91 70.91 0 005.5-27.67v-.06a82.43 82.43 0 00-.8-11.3 237.93 237.93 0 0130.95-2.83zM206.4 36.87c1.29 2.65 2.5 5.38 3.67 8.15-1.26.82-2.5 1.65-3.73 2.46q-1.74-1.36-3.54-2.62c1.2-2.71 2.33-5.39 3.6-7.99zm3.86 26.89c12.21-11.82 26-17.85 41.07-17.85a64.28 64.28 0 0119 3 69.58 69.58 0 0114.4 6.47c2.34-1.28 5.74-3 9.89-4.89a134.34 134.34 0 0152.76-11.22h2l-6.68 40.85q-10 .82-19.24 2.37a81.79 81.79 0 00-14.4 3.26 87 87 0 012.53 9.73 64.32 64.32 0 011.18 12.08c0 15.47-2.71 25.5-14.12 37.6 0 0-3.65-3.54-5.61-5.52Q264.51 110.75 235.72 82c-3.08-3.11-6.6-4.79-10.19-4.79s-7.08 1.67-10.15 4.75c-9.5 9.53-21.72 21.84-31.25 31.33a14.67 14.67 0 01-10.39 4.41 14 14 0 01-8.86-3.17 5.66 5.66 0 01-1.34-1.42 2.06 2.06 0 01-.35-1.07 2.25 2.25 0 01.29-1 6.11 6.11 0 011.11-1.43c15.21-15.36 30.22-30.85 45.67-45.85zM65.43 39.29a132.73 132.73 0 0147.57 9.1.94.94 0 01-.12.09A150.44 150.44 0 01128 55.35a58.29 58.29 0 0123-8.57 66.06 66.06 0 019.6-.72c13.68 0 22.21 1.55 33.5 10.59.25.19.5.42.74.63-.23.26-27.86 29.22-41.37 42.8-3.17 3.18-7.82 8.89-7.82 12.5a12 12 0 001.64 6 17.54 17.54 0 004.72 5.17c4.45 3.35 19.39 7.39 24.51 7.39a25 25 0 0017.66-7.54c9.51-9.43 18.91-18.95 28.34-28.42a11.63 11.63 0 011.91-1.62 2 2 0 011.1-.4 2.07 2.07 0 011.08.38c.48.31 1.85 1.58 1.85 1.58l55.26 55.5s2.5 2.24 2.5 5.14a5.11 5.11 0 01-1 3.05 21.45 21.45 0 01-4 4.4 6.11 6.11 0 01-3.8 1.49 6 6 0 01-1.9-.33 10.43 10.43 0 01-3.89-2.54q-20-19.89-39.79-39.91-.94-1-1.92-1.92a9 9 0 00-2.25-1.67 5.36 5.36 0 00-2.45-.62 5.22 5.22 0 00-5 5 5.36 5.36 0 00.61 2.42 8.74 8.74 0 001.65 2.2q21 21.1 42 42.18a10.81 10.81 0 011.93 2.47 5.1 5.1 0 01.69 2.51 5 5 0 01-.24 1.51 11.36 11.36 0 01-2.82 4.81 13.19 13.19 0 01-5.11 3.29 4.78 4.78 0 01-1.45.22 5.32 5.32 0 01-2.47-.64 10.39 10.39 0 01-2.4-1.85c-13.82-13.93-27.76-28.15-41.6-42.05-.87-.87-2.87-2.59-5.22-2.48a5.07 5.07 0 00-3.4 1.54 4.76 4.76 0 00-1.39 3.36 5.58 5.58 0 00.79 2.72 10.5 10.5 0 002 2.26c13.68 13.74 27.44 27.81 41.12 41.55a12.84 12.84 0 012.33 3 5.46 5.46 0 01.69 2.58 5.54 5.54 0 01-.71 2.63 10 10 0 01-2 2.6 16.1 16.1 0 01-2.85 2.47 5.35 5.35 0 01-2.92.92 6.93 6.93 0 01-3.29-1 9.38 9.38 0 01-2.26-1.81 22.13 22.13 0 00-6-4.68 16.8 16.8 0 00-7.22-1.83c-.19-4.75-2.61-9.48-6.18-13.12a20.68 20.68 0 00-12.79-6.35 21.58 21.58 0 00-19.17-18.89 16 16 0 00-2.35-8.13 29 29 0 00-5.55-6.44 17.29 17.29 0 00-11.64-4.64 16.38 16.38 0 00-11.44 4.69c-5.77 5.53-11.38 11.22-16.88 17a25.2 25.2 0 00-3.3 4.85c-6.57-6.69-13.55-12.92-19.07-20.12a58 58 0 01-12.12-35.6 61.43 61.43 0 014-21.65c-2.76-.65-6.73-1.48-12.13-2.35-7-1.23-14.25-2.17-21.86-2.78l-6.81-40.75c.68-.01 1.36-.04 2.04-.04zm87.94 135.31a7.3 7.3 0 01-1.84 1.19 5 5 0 01-3.84.23 8.89 8.89 0 01-2.68-1.5 12.39 12.39 0 01-3.1-4.06 4.6 4.6 0 01-.57-2.13 4.84 4.84 0 01.64-2.29 9.85 9.85 0 011.83-2.31c4.35-4.27 8.59-8.63 12.88-12.92a9.36 9.36 0 012.41-1.83 4.75 4.75 0 012.19-.56 4.91 4.91 0 012.22.57 10 10 0 012.48 1.87c.47.48.94.93 1.37 1.39a6.21 6.21 0 011.9 4.25 5.87 5.87 0 01-1.88 4.12c-4.64 4.73-9.25 9.44-14.01 13.98zm19.55 19.64a7.32 7.32 0 01-1.84 1.2 5 5 0 01-3.85.23 8.8 8.8 0 01-2.68-1.5 12.52 12.52 0 01-3.1-4 4.59 4.59 0 01-.56-2.14 4.79 4.79 0 01.64-2.29 10.28 10.28 0 011.82-2.31c4.36-4.27 8.6-8.62 12.88-12.92a9.87 9.87 0 012.42-1.83 4.62 4.62 0 014.41 0 10 10 0 012.48 1.87c.47.47.93.92 1.36 1.38a6.16 6.16 0 011.9 4.25 5.88 5.88 0 01-1.87 4.13c-4.64 4.69-9.25 9.4-14.01 13.93zm19 18.5a7.48 7.48 0 01-1.84 1.19 5 5 0 01-3.84.23 9.11 9.11 0 01-2.68-1.5 12.39 12.39 0 01-3.1-4.06 4.6 4.6 0 01-.57-2.13 4.84 4.84 0 01.64-2.29 9.89 9.89 0 011.83-2.32c4.35-4.26 8.59-8.62 12.88-12.92a9.53 9.53 0 012.41-1.82 4.75 4.75 0 012.19-.56 4.91 4.91 0 012.22.57 10 10 0 012.48 1.87c.47.47.94.93 1.37 1.39a6.21 6.21 0 011.9 4.25 5.87 5.87 0 01-1.88 4.12c-4.61 4.73-9.22 9.44-13.93 13.98zm18.72 18.72a7.3 7.3 0 01-1.84 1.19 5 5 0 01-3.84.23 9.24 9.24 0 01-2.68-1.5 12.53 12.53 0 01-3.1-4.06 4.38 4.38 0 01.08-4.42 10.1 10.1 0 011.82-2.32c4.35-4.26 8.6-8.62 12.88-12.92a9.39 9.39 0 012.42-1.82 4.68 4.68 0 012.18-.56 4.88 4.88 0 012.22.57 9.65 9.65 0 012.48 1.87c.47.47.94.93 1.37 1.39a6.21 6.21 0 011.9 4.25 5.86 5.86 0 01-1.87 4.12c-4.66 4.73-9.23 9.44-13.99 13.98zM56 93.13a237 237 0 0130.5 2.81 90.12 90.12 0 00-.73 13.64c0 2.3.1 4.16.12 4.23v.14a77.34 77.34 0 005.34 21.81 65.4 65.4 0 0012.2 19.24c10.38 11.39 21.41 22 32.07 32.65a22.72 22.72 0 0010.21 5.56 169.73 169.73 0 00-31.58-3 172.93 172.93 0 00-27.35 2.18zm120.54 161l-.16.07c-1.22.57-2.46 1.1-3.7 1.6l-1.58.65c-1.35.54-2.7 1.06-4.07 1.56l-1.23.44q-2 .72-4 1.38c-.57.18-1.14.34-1.7.53-1.15.38-2.3.74-3.47 1.05l-.58.16c-2.76.77-5.54 1.45-8.34 2.07l-1.86.42c-1 .21-2 .39-3 .58l-2.75.5-2.81.43c-1 .15-2 .3-3.07.43l-2.63.32-3.36.33c-.8.07-1.61.15-2.42.21-1.27.09-2.55.16-3.83.22-.66 0-1.32.08-2 .1-2 .08-3.89.12-5.84.12-33.4 0-66.79-10.55-92.28-31.67 1.42-1.18 2.88-2.31 4.35-3.43l.95-.71q2.16-1.6 4.38-3.12l.78-.52q2-1.35 4.1-2.62l.83-.52c1.52-.92 3.06-1.8 4.61-2.66.37-.21.75-.41 1.13-.61 1.52-.82 3-1.62 4.6-2.38l.15-.08q2.07-1 4.2-2l2.06-.88c1.6-.68 3.21-1.35 4.84-2l1.17-.44c1.39-.53 2.8-1 4.22-1.51l1.16-.4c1.64-.55 3.3-1.06 5-1.55l1.41-.41q2.34-.66 4.71-1.26a156.45 156.45 0 0188 3.81 19.49 19.49 0 001.56 4.36 28 28 0 005.18 7 26.47 26.47 0 007.32 5.38 21 21 0 004.76 1.58 20.48 20.48 0 002.29 6.09 32.22 32.22 0 006 7.29 18.7 18.7 0 001.46 1.21 135.24 135.24 0 01-16.52 8.89zM391 235.64c-25.48 21.12-58.87 31.67-92.27 31.67-28.71 0-57.37-7.87-81-23.48 5-3.62 11-10.64 14.69-14.68 3-3.26 6.64-6 8.35-10.09a18.11 18.11 0 001.16-3.56 11.3 11.3 0 006.77-.54 24.87 24.87 0 006.86-4.85v-.05a155.1 155.1 0 0143.15-6.06c33.39 0 66.8 10.56 92.27 31.67zM255.49 210.11zM286.52 176.97z"/><path class="cls-2" d="M185.62 236.77h-.01v-.01l.01.01zM279.73 183.45zM166.06 216.72v-.01.01zM738.46 283.65h-9.3v20.19h-6.31v-48.36h15.61c11.38 0 16.72 6.25 16.72 14.15 0 7.37-4.72 14.02-16.72 14.02zm0-5.2c7.22 0 10.27-3.4 10.27-8.82 0-5.62-3.05-8.95-10.27-8.95h-9.3v17.77zM791.6 293.09h-21.09l-3.88 10.75H760l17.48-48.08h7.28l17.42 48.08h-6.66zm-10.54-29.56L772.32 288h17.48zM825.39 255.48c11.38 0 16.79 6.31 16.79 14.22 0 6.18-3.4 12.08-11.52 13.88l12.14 20.26h-7.56l-11.52-19.77h-7.63v19.77h-6.31v-48.36zm0 5.2h-9.3V279h9.3c7.15 0 10.27-3.88 10.27-9.3s-3.06-9.02-10.27-9.02zM849 255.48h32.74v5.14h-13.2v43.22h-6.31v-43.22H849zM927.51 255.41v48.43h-6.31l-25.4-38.51v38.51h-6.31v-48.43h6.31l25.4 38.44v-38.44zM964.28 260.62h-19.7v16.16h17.62V282h-17.62v16.66h19.7v5.2h-26v-48.45h26zM989.46 255.48c11.38 0 16.79 6.31 16.79 14.22 0 6.18-3.4 12.08-11.51 13.88l12.14 20.26h-7.57l-11.51-19.77h-7.63v19.77h-6.32v-48.36zm0 5.2h-9.29V279h9.29c7.15 0 10.27-3.88 10.27-9.3s-3.05-9.02-10.27-9.02zM1031.37 304.32c-9.72 0-16.59-5.41-16.72-13.39h6.73c.41 4 3.26 8.05 10 8.05 6.1 0 9.71-3.47 9.71-8.05 0-13-26.16-4.71-26.16-22.68 0-8 6.46-13.39 16-13.39 9.23 0 15.26 5.06 16 12.42H1040c-.42-3.27-3.47-6.94-9.37-7-5.2-.14-9.29 2.57-9.29 7.77 0 12.49 26.08 4.72 26.08 22.62.04 6.86-5.58 13.65-16.05 13.65z"/></svg>